<svg aria-hidden="true" style="position: absolute; width: 0; height: 0; overflow: hidden;" version="1.1" xmlns="http://www.w3.org/2000/svg" xmlns:xlink="http://www.w3.org/1999/xlink">
<defs>
<symbol id="icon-bars" viewBox="0 0 24 28">
<path d="M24 21v2c0 0.547-0.453 1-1 1h-22c-0.547 0-1-0.453-1-1v-2c0-0.547 0.453-1 1-1h22c0.547 0 1 0.453 1 1zM24 13v2c0 0.547-0.453 1-1 1h-22c-0.547 0-1-0.453-1-1v-2c0-0.547 0.453-1 1-1h22c0.547 0 1 0.453 1 1zM24 5v2c0 0.547-0.453 1-1 1h-22c-0.547 0-1-0.453-1-1v-2c0-0.547 0.453-1 1-1h22c0.547 0 1 0.453 1 1z"></path>
</symbol>
<symbol id="icon-chevron-down" viewBox="0 0 24 24">
<path d="M5.293 9.707l6 6c0.391 0.391 1.024 0.391 1.414 0l6-6c0.391-0.391 0.391-1.024 0-1.414s-1.024-0.391-1.414 0l-5.293 5.293-5.293-5.293c-0.391-0.391-1.024-0.391-1.414 0s-0.391 1.024 0 1.414z"></path>
</symbol>
<symbol id="icon-dashboard" viewBox="0 0 24 24">
<path d="M12.984 3h8.016v6h-8.016v-6zM12.984 21v-9.984h8.016v9.984h-8.016zM3 21v-6h8.016v6h-8.016zM3 12.984v-9.984h8.016v9.984h-8.016z"></path>
</symbol>
<symbol id="icon-stats-bars" viewBox="0 0 32 32">
<path d="M0 26h32v4h-32zM4 18h4v6h-4zM10 10h4v14h-4zM16 16h4v8h-4zM22 4h4v20h-4z"></path>
</symbol>
<symbol id="icon-currency-dollar" viewBox="0 0 20 20">
<path d="M10 20c-5.523 0-10-4.477-10-10s4.477-10 10-10v0c5.523 0 10 4.477 10 10s-4.477 10-10 10v0zM11 15h1c1.657 0 3-1.343 3-3s-1.343-3-3-3v0h-4.010c-0.552 0-1-0.448-1-1s0.448-1 1-1v0h6.010v-2h-3v-2h-2v2h-1c-1.657 0-3 1.343-3 3s1.343 3 3 3v0h4c0.552 0 1 0.448 1 1s-0.448 1-1 1v0h-6v2h3v2h2v-2z"></path>
</symbol>
<symbol id="icon-plus" viewBox="0 0 24 24">
<path d="M5 13h6v6c0 0.552 0.448 1 1 1s1-0.448 1-1v-6h6c0.552 0 1-0.448 1-1s-0.448-1-1-1h-6v-6c0-0.552-0.448-1-1-1s-1 0.448-1 1v6h-6c-0.552 0-1 0.448-1 1s0.448 1 1 1z"></path>
</symbol>
<symbol id="icon-mastercard" viewBox="0 0 32 32">
<path d="M15.124 24.041c0.077 0.065 0.16 0.131 0.241 0.195-1.569 1.044-3.453 1.651-5.476 1.651-5.463 0.001-9.889-4.425-9.889-9.887 0-5.46 4.427-9.888 9.888-9.888 2.024 0 3.908 0.608 5.473 1.651-0.080 0.068-0.16 0.131-0.22 0.2-2.341 2.023-3.681 4.955-3.681 8.037 0 3.081 1.335 6.013 3.664 8.041zM22.112 6.112c-2.027 0-3.908 0.608-5.473 1.651 0.080 0.068 0.16 0.131 0.22 0.2 2.341 2.023 3.681 4.955 3.681 8.037 0 3.080-1.335 6.009-3.664 8.041-0.077 0.065-0.16 0.131-0.241 0.195 1.569 1.044 3.451 1.651 5.476 1.651 5.463 0.001 9.889-4.425 9.889-9.887 0-5.459-4.427-9.888-9.888-9.888zM16 8.232c-0.128 0.1-0.252 0.2-0.373 0.308-2.085 1.812-3.401 4.48-3.401 7.46 0 2.981 1.316 5.648 3.401 7.46 0.12 0.107 0.247 0.211 0.373 0.309 0.128-0.099 0.252-0.203 0.373-0.309 2.084-1.812 3.401-4.479 3.401-7.46 0-2.98-1.316-5.648-3.401-7.46-0.12-0.107-0.245-0.208-0.373-0.308z"></path>
</symbol>
<symbol id="icon-visa" viewBox="0 0 32 32">
<path d="M23.26 11.497c-0.516-0.195-1.32-0.401-2.32-0.401-2.56 0-4.367 1.291-4.38 3.14-0.016 1.36 1.285 2.125 2.268 2.581 1.009 0.467 1.347 0.76 1.344 1.18-0.007 0.636-0.807 0.924-1.549 0.924-1.021 0-1.581-0.143-2.441-0.5l-0.319-0.148-0.361 2.131c0.621 0.26 1.741 0.483 2.9 0.5 2.721 0 4.5-1.281 4.521-3.252 0.021-1.084-0.68-1.907-2.161-2.584-0.899-0.44-1.459-0.735-1.459-1.181 0-0.395 0.479-0.816 1.479-0.816 0.86-0.013 1.461 0.172 1.94 0.364l0.24 0.108 0.361-2.059zM29.904 11.271h-2c-0.623 0-1.088 0.169-1.361 0.788l-3.847 8.712h2.721l0.544-1.427 3.32 0.003c0.081 0.333 0.32 1.424 0.32 1.424h2.399zM12.88 11.191h2.591l-1.62 9.505h-2.592l1.621-9.508zM6.295 16.429l0.269 1.32 2.535-6.479h2.745l-4.081 9.487h-2.739l-2.24-8.035c-0.047-0.137-0.104-0.231-0.24-0.316-0.757-0.396-1.604-0.719-2.544-0.943l0.033-0.2h4.175c0.565 0.021 1.021 0.2 1.177 0.805l0.909 4.364zM26.705 17.399l1.033-2.659c-0.013 0.027 0.213-0.549 0.344-0.907l0.177 0.82 0.599 2.743h-2.153z"></path>
</symbol>
<symbol id="icon-dots" viewBox="0 0 20 20">
<path d="M10.001 7.8c-1.215 0-2.201 0.985-2.201 2.2s0.986 2.2 2.201 2.2c1.215 0 2.199-0.985 2.199-2.2s-0.984-2.2-2.199-2.2zM3.001 7.8c-1.215 0-2.201 0.985-2.201 2.2s0.986 2.2 2.201 2.2c1.215 0 2.199-0.986 2.199-2.2s-0.984-2.2-2.199-2.2zM17.001 7.8c-1.215 0-2.201 0.985-2.201 2.2s0.986 2.2 2.201 2.2c1.215 0 2.199-0.985 2.199-2.2s-0.984-2.2-2.199-2.2z"></path>
</symbol>
<symbol id="icon-arrow-down" viewBox="0 0 24 24">
<path d="M18.293 11.293l-5.293 5.293v-11.586c0-0.552-0.448-1-1-1s-1 0.448-1 1v11.586l-5.293-5.293c-0.391-0.391-1.024-0.391-1.414 0s-0.391 1.024 0 1.414l7 7c0.092 0.092 0.202 0.166 0.324 0.217 0.245 0.101 0.521 0.101 0.766 0 0.118-0.049 0.228-0.121 0.324-0.217l7-7c0.391-0.391 0.391-1.024 0-1.414s-1.024-0.391-1.414 0z"></path>
</symbol>
<symbol id="icon-arrow-up" viewBox="0 0 24 24">
<path d="M5.707 12.707l5.293-5.293v11.586c0 0.552 0.448 1 1 1s1-0.448 1-1v-11.586l5.293 5.293c0.391 0.391 1.024 0.391 1.414 0s0.391-1.024 0-1.414l-7-7c-0.092-0.092-0.202-0.166-0.324-0.217s-0.253-0.076-0.383-0.076c-0.256 0-0.512 0.098-0.707 0.293l-7 7c-0.391 0.391-0.391 1.024 0 1.414s1.024 0.391 1.414 0z"></path>
</symbol>
<symbol id="icon-send" viewBox="0 0 24 24">
<path d="M22.963 2.269c0.043-0.151 0.050-0.314 0.015-0.476-0.024-0.113-0.068-0.224-0.131-0.325-0.064-0.102-0.145-0.19-0.238-0.262-0.117-0.090-0.249-0.15-0.386-0.181s-0.282-0.034-0.426-0.004c-0.042 0.009-0.085 0.021-0.126 0.035l-0.021 0.007-19.98 6.993c-0.252 0.088-0.467 0.276-0.584 0.538-0.224 0.505 0.003 1.096 0.508 1.32l8.649 3.844 3.844 8.649c0.108 0.243 0.313 0.443 0.583 0.538 0.521 0.182 1.092-0.092 1.274-0.614l6.993-19.979c0.010-0.027 0.019-0.054 0.027-0.082zM10.779 11.807l-6.068-2.696 13.483-4.72zM19.609 5.806l-4.72 13.483-2.696-6.068z"></path>
</symbol>
<symbol id="icon-credit-card" viewBox="0 0 32 32">
<path d="M29 4h-26c-1.65 0-3 1.35-3 3v18c0 1.65 1.35 3 3 3h26c1.65 0 3-1.35 3-3v-18c0-1.65-1.35-3-3-3zM3 6h26c0.542 0 1 0.458 1 1v3h-28v-3c0-0.542 0.458-1 1-1zM29 26h-26c-0.542 0-1-0.458-1-1v-9h28v9c0 0.542-0.458 1-1 1zM4 20h2v4h-2zM8 20h2v4h-2zM12 20h2v4h-2z"></path>
</symbol>
</defs>
</svg>
